<?xml version="1.0" encoding="UTF-8" standalone="no"?>
<!DOCTYPE svg PUBLIC "-//W3C//DTD SVG 1.1//EN" "http://www.w3.org/Graphics/SVG/1.1/DTD/svg11.dtd">
<svg width="100%" height="100%" viewBox="0 0 400 400" version="1.1" xmlns="http://www.w3.org/2000/svg" xmlns:xlink="http://www.w3.org/1999/xlink" xml:space="preserve" xmlns:serif="http://www.serif.com/" style="fill-rule:evenodd;clip-rule:evenodd;stroke-linejoin:round;stroke-miterlimit:2;">
    <g>
        <path d="M202.7,352.8C201.8,352.8 200.9,352.6 200,352.3C197.4,351.2 195.7,348.7 195.7,345.8L195.7,54.2C195.7,50.3 198.8,47.2 202.7,47.2C206.6,47.2 209.7,50.3 209.7,54.2L209.7,328.8L292.3,246.2C295,243.5 299.5,243.5 302.2,246.2C304.9,248.9 304.9,253.4 302.2,256.1L207.7,350.6C206.3,352.1 204.5,352.8 202.7,352.8ZM169.5,318.8C167.7,318.8 165.9,318.1 164.6,316.8L97.9,250C95.2,247.3 95.2,242.8 97.9,240.1C100.6,237.4 105.1,237.4 107.8,240.1L174.5,306.8C177.2,309.5 177.2,314 174.5,316.7C173.1,318.1 171.3,318.8 169.5,318.8Z" style="fill:rgb(30,255,159);"/>
    </g>
</svg>
