<?xml version="1.0" encoding="utf-8"?>
<!-- Generator: Adobe Illustrator 24.0.0, SVG Export Plug-In . SVG Version: 6.00 Build 0)  -->
<svg version="1.1" id="Capa_1" xmlns="http://www.w3.org/2000/svg" xmlns:xlink="http://www.w3.org/1999/xlink" x="0px" y="0px"
	 viewBox="0 0 400 400" style="enable-background:new 0 0 400 400;" xml:space="preserve">
<style type="text/css">
	.st0{fill:#C6E5DB;}
</style>
<g>
	<g>
		<path class="st0" d="M218.2,12.9l1.6,0.1c0.3,0,0.4,0.2,0.4,0.5l-2.6,31.2c0,0.3-0.2,0.4-0.5,0.4l-1.5-0.1c-0.3,0-0.4-0.2-0.4-0.5
			l2.2-26c0-0.1,0-0.1-0.1-0.1s-0.1,0-0.1,0.1l-6,10.8c-0.1,0.2-0.3,0.3-0.5,0.3s-0.4-0.1-0.5-0.4L206,17.6
			c-0.1-0.1-0.1-0.1-0.2-0.1s-0.1,0-0.1,0.1l-2.2,25.9c0,0.3-0.2,0.4-0.5,0.4l-1.5-0.1c-0.3,0-0.4-0.2-0.4-0.5l2.6-31.2
			c0-0.3,0.2-0.4,0.5-0.4l1.6,0.1c0.2,0,0.4,0.1,0.5,0.4l4.6,12.5c0,0.1,0.1,0.1,0.1,0.1c0.1,0,0.1,0,0.1-0.1l6.5-11.6
			C217.8,13,218,12.9,218.2,12.9z"/>
		<path class="st0" d="M234.9,48.2V42c0-0.1,0-0.1,0-0.1l-0.1-0.1l-8.8-1.9c-0.1,0-0.1,0-0.2,0c-0.1,0-0.1,0.1-0.1,0.1l-2.5,5.6
			c-0.1,0.3-0.3,0.4-0.6,0.3l-1.5-0.3c-0.2,0-0.3-0.1-0.3-0.2s-0.1-0.2,0-0.4l13.3-29.2c0.1-0.3,0.3-0.4,0.6-0.3l1.8,0.4
			c0.3,0.1,0.4,0.2,0.4,0.5l0.4,32.1v0.1c-0.1,0.3-0.2,0.4-0.5,0.3l-1.5-0.3C235.1,48.6,234.9,48.4,234.9,48.2z M226.8,38l8,1.7
			c0.1,0,0.1,0,0.2-0.2V19.6c0-0.1,0-0.1-0.1-0.2c0,0-0.1,0-0.1,0.1l-8.1,18.2C226.6,37.9,226.7,38,226.8,38z M234.6,12.3
			c0-0.1,0-0.2,0.1-0.4l3.8-4.4c0.2-0.2,0.4-0.2,0.6-0.2l1.2,0.3c0.2,0,0.3,0.1,0.3,0.2s0,0.2-0.1,0.4l-4.2,4.3
			c-0.2,0.2-0.4,0.2-0.6,0.2l-0.9-0.2C234.8,12.5,234.7,12.4,234.6,12.3z"/>
		<path class="st0" d="M240.7,48.3c-0.8-1.8-0.9-3.9-0.1-6.2l0.3-0.9c0.1-0.3,0.3-0.4,0.6-0.3l1.4,0.5c0.3,0.1,0.4,0.3,0.3,0.6
			l-0.3,0.8c-0.6,1.7-0.6,3.2-0.1,4.6s1.5,2.2,2.8,2.7c1.4,0.4,2.7,0.3,3.9-0.4s2.1-1.9,2.7-3.5c0.4-1.1,0.4-2.1,0.3-3
			s-0.5-1.8-1-2.6s-1.3-2-2.4-3.6c-1.1-1.6-2-2.9-2.6-4c-0.6-1-0.9-2.1-1.1-3.3c-0.2-1.2,0-2.5,0.4-4c0.7-2.2,1.9-3.8,3.6-4.7
			c1.7-0.9,3.5-1,5.5-0.3c2.1,0.7,3.6,2,4.4,3.8c0.8,1.8,0.8,3.9,0.1,6.3l-0.4,1.1c-0.1,0.3-0.3,0.4-0.6,0.3l-1.4-0.5
			c-0.3-0.1-0.4-0.3-0.3-0.6l0.4-1.1c0.6-1.7,0.6-3.3,0.1-4.6c-0.5-1.3-1.5-2.2-2.9-2.7c-1.3-0.4-2.5-0.3-3.6,0.3
			c-1.1,0.6-2,1.8-2.5,3.5c-0.3,1-0.4,1.9-0.3,2.8c0.1,0.8,0.4,1.7,0.9,2.6c0.5,0.9,1.2,2.1,2.3,3.6c1.3,1.8,2.2,3.3,2.8,4.4
			c0.6,1.1,1,2.1,1.1,3.2c0.1,1.1,0,2.3-0.4,3.6c-0.8,2.4-2,4.1-3.8,5.1s-3.7,1.1-5.7,0.5S241.5,50.1,240.7,48.3z"/>
		<path class="st0" d="M265,59.1L278.8,31c0.1-0.3,0.3-0.3,0.6-0.2l1.4,0.7c0.3,0.1,0.3,0.3,0.2,0.6l-13.8,28.1
			c-0.1,0.3-0.3,0.3-0.6,0.2l-1.4-0.7C264.9,59.6,264.8,59.4,265,59.1z"/>
		<path class="st0" d="M301,43.1l1.3,0.8c0.3,0.2,0.3,0.4,0.1,0.6l-16.5,26.6c-0.2,0.3-0.4,0.3-0.6,0.1l-1.5-0.9
			c-0.2-0.1-0.3-0.3-0.2-0.6l5.2-27.1c0-0.1,0-0.2-0.1-0.2s-0.1,0-0.2,0.1l-13.4,21.8c-0.2,0.3-0.4,0.3-0.6,0.1l-1.3-0.8
			c-0.3-0.2-0.3-0.4-0.1-0.6l16.5-26.6c0.2-0.3,0.4-0.3,0.6-0.1l1.5,0.9c0.2,0.1,0.3,0.3,0.2,0.6l-5.1,27c0,0.1,0,0.2,0.1,0.2
			s0.1,0,0.2-0.1l13.4-21.7C300.5,43,300.7,42.9,301,43.1z"/>
		<path class="st0" d="M320.1,60.2l-8.4-6.8c-0.1-0.1-0.2-0.1-0.3,0l-7.8,9.7c-0.1,0.1-0.1,0.2,0,0.3l5.4,4.3
			c0.2,0.2,0.3,0.4,0.1,0.6l-0.8,1c-0.2,0.2-0.4,0.3-0.6,0.1l-5.4-4.3c-0.1-0.1-0.2-0.1-0.3,0l-9,11.2c-0.2,0.2-0.4,0.3-0.6,0.1
			l-1.2-1c-0.2-0.2-0.3-0.4-0.1-0.6l19.6-24.4c0.2-0.2,0.4-0.3,0.6-0.1l10.1,8.1c0.2,0.2,0.3,0.4,0.1,0.6l-0.8,1
			C320.5,60.4,320.3,60.4,320.1,60.2z"/>
		<path class="st0" d="M306.3,86c0-2,0.9-3.8,2.5-5.4l12.4-12.2c1.7-1.6,3.5-2.5,5.5-2.5s3.8,0.8,5.4,2.4s2.4,3.4,2.3,5.4
			c0,2-0.9,3.8-2.5,5.5l-12.4,12.2c-1.6,1.6-3.5,2.4-5.5,2.4s-3.8-0.8-5.4-2.4C307.1,89.8,306.3,88,306.3,86z M313.9,91.5
			c1.4,0,2.7-0.6,3.8-1.7l12.6-12.4c1.2-1.1,1.8-2.4,1.8-3.8c0.1-1.4-0.5-2.7-1.5-3.8c-1.1-1.1-2.3-1.6-3.7-1.5
			c-1.4,0-2.7,0.6-3.8,1.8l-12.6,12.4c-1.2,1.1-1.8,2.4-1.8,3.8c-0.1,1.4,0.4,2.6,1.5,3.7C311.3,91,312.5,91.5,313.9,91.5z"/>
		<path class="st0" d="M325.6,110.4l8.5-12.9c0.1-0.1,0.1-0.2,0-0.2l-2.8-3.6c-0.1-0.1-0.2-0.1-0.3,0l-11.5,8.8
			c-0.2,0.2-0.5,0.2-0.6-0.1l-0.9-1.2c-0.2-0.2-0.2-0.5,0.1-0.6L343,81.5c0.2-0.2,0.5-0.2,0.6,0.1l4.3,5.7c1.3,1.7,1.7,3.6,1.3,5.6
			c-0.5,2-1.7,3.8-3.8,5.4c-1.6,1.3-3.3,2-5,2.1c-1.7,0.2-3.2-0.2-4.5-1.1c-0.1-0.1-0.2-0.1-0.3,0l-8.4,13l-0.1,0.1
			c-0.2,0.1-0.3,0.1-0.5-0.1l-0.9-1.2C325.5,110.9,325.5,110.6,325.6,110.4z M343,84.5l-10,7.6c-0.1,0.1-0.1,0.2,0,0.3l2.9,3.7
			c0.9,1.2,2.1,1.8,3.6,1.8s3-0.6,4.5-1.7c1.6-1.2,2.5-2.5,2.9-4c0.4-1.4,0.1-2.8-0.8-4l-2.9-3.7C343.1,84.5,343.1,84.5,343,84.5z"
			/>
		<path class="st0" d="M364.2,112.4l0.8,1.4c0.2,0.3,0.1,0.5-0.2,0.6l-27,15.6c-0.3,0.2-0.5,0.1-0.6-0.2l-0.8-1.3
			c-0.2-0.3-0.1-0.5,0.2-0.6l22.6-13c0.1,0,0.1-0.1,0.1-0.1c0-0.1-0.1-0.1-0.1-0.1l-12.3,1.2c-0.3,0-0.4,0-0.5-0.2s-0.1-0.4,0-0.6
			l7.1-10c0-0.1,0-0.1,0-0.2c0,0-0.1,0-0.2,0l-22.5,13c-0.3,0.2-0.5,0.1-0.6-0.2l-0.8-1.3c-0.2-0.3-0.1-0.5,0.2-0.6l27.1-15.6
			c0.3-0.2,0.5-0.1,0.6,0.2l0.8,1.4c0.1,0.2,0.1,0.4,0,0.6l-7.6,10.9c0,0.1,0,0.1,0,0.2s0.1,0.1,0.1,0.1l13.2-1.2
			C363.9,112.1,364.1,112.2,364.2,112.4z"/>
		<path class="st0" d="M344.8,146.3l5.1-3.5c0.1,0,0.1-0.1,0.1-0.1c0-0.1,0-0.1,0-0.2l-3.5-8.3c0-0.1-0.1-0.1-0.1-0.1s-0.1,0-0.2,0
			l-6,1.2c-0.3,0.1-0.5,0-0.6-0.3l-0.6-1.4c-0.1-0.1-0.1-0.3,0-0.4c0.1-0.1,0.2-0.2,0.3-0.2l31.5-5.7c0.3-0.1,0.5,0.1,0.6,0.3
			l0.7,1.7c0.1,0.3,0.1,0.5-0.2,0.6l-26.1,18.6h-0.1c-0.3,0.1-0.4,0-0.5-0.2l-0.6-1.4C344.5,146.6,344.5,146.4,344.8,146.3z
			 M348.4,133.8l3.2,7.5c0,0.1,0.1,0.1,0.2,0.1l16.4-11.3c0.1-0.1,0.1-0.1,0.1-0.1s-0.1,0-0.2,0l-19.5,3.7
			C348.4,133.6,348.4,133.7,348.4,133.8z"/>
		<path class="st0" d="M348.2,152.1c1-1.7,2.6-2.9,4.8-3.5l17-5c2.2-0.6,4.2-0.5,5.9,0.4s2.9,2.5,3.5,4.6c0.6,2.2,0.5,4.1-0.5,5.8
			c-0.9,1.7-2.5,2.9-4.7,3.5l-0.8,0.2c-0.1,0-0.3,0-0.4,0c-0.1-0.1-0.2-0.2-0.2-0.3l-0.5-1.4c-0.1-0.3,0-0.5,0.3-0.6l1.1-0.3
			c1.5-0.4,2.6-1.2,3.3-2.4c0.7-1.2,0.8-2.5,0.4-3.9s-1.2-2.5-2.4-3.1c-1.2-0.6-2.5-0.7-4.1-0.2l-17.3,5c-1.5,0.4-2.6,1.3-3.3,2.4
			c-0.7,1.2-0.8,2.5-0.4,3.9s1.2,2.5,2.4,3.1c1.2,0.6,2.6,0.7,4.1,0.3l1-0.3c0.3-0.1,0.5,0,0.6,0.3l0.3,1.5c0.1,0.3,0,0.5-0.3,0.6
			l-0.8,0.2c-2.2,0.7-4.2,0.5-5.9-0.4c-1.7-0.9-2.9-2.5-3.5-4.6C347.1,155.8,347.2,153.8,348.2,152.1z"/>
		<path class="st0" d="M351.6,170.3l30.7-6c0.3-0.1,0.5,0.1,0.5,0.4l0.3,1.5c0.1,0.3-0.1,0.5-0.4,0.5l-30.7,6
			c-0.3,0.1-0.5-0.1-0.5-0.4l-0.3-1.5C351.2,170.5,351.3,170.4,351.6,170.3z"/>
		<path class="st0" d="M354.7,180.3c1.3-1.5,3.1-2.4,5.3-2.6l17.3-1.8c2.3-0.2,4.3,0.3,5.8,1.5c1.6,1.2,2.5,3,2.7,5.2
			c0.2,2.3-0.3,4.2-1.6,5.7c-1.3,1.5-3.1,2.4-5.4,2.7l-17.3,1.8c-2.3,0.2-4.2-0.3-5.8-1.5c-1.6-1.3-2.5-3-2.7-5.3
			C352.9,183.7,353.5,181.8,354.7,180.3z M357.2,189.3c1.1,0.9,2.5,1.2,4.1,1l17.5-1.8c1.6-0.2,2.9-0.8,3.8-1.8
			c0.9-1.1,1.3-2.4,1.2-3.9c-0.2-1.5-0.8-2.7-1.9-3.5s-2.5-1.2-4.1-1l-17.5,1.8c-1.6,0.2-2.9,0.8-3.8,1.8s-1.3,2.3-1.1,3.8
			C355.5,187.3,356.1,188.4,357.2,189.3z M388.6,180.6c0.1-0.1,0.2-0.1,0.4,0l5.3,2.3c0.2,0.1,0.4,0.3,0.4,0.5l0.1,1.2
			c0,0.2,0,0.3-0.1,0.4s-0.2,0.1-0.4,0l-5.4-2.6c-0.2-0.1-0.4-0.3-0.4-0.5l-0.1-0.9C388.4,180.8,388.5,180.7,388.6,180.6z"/>
		<path class="st0" d="M386.3,213v1.5c0,0.3-0.2,0.5-0.5,0.4l-31.3-0.9c-0.3,0-0.5-0.2-0.4-0.5l0.1-1.8c0-0.2,0.1-0.4,0.4-0.5l26-9
			c0.1,0,0.1-0.1,0.1-0.1c0-0.1-0.1-0.1-0.2-0.1l-25.6-0.7c-0.3,0-0.5-0.2-0.4-0.5v-1.5c0-0.3,0.2-0.5,0.5-0.4l31.3,0.9
			c0.3,0,0.5,0.2,0.4,0.5l-0.1,1.7c0,0.2-0.1,0.4-0.4,0.5l-25.9,9.1c-0.1,0-0.1,0.1-0.1,0.1c0,0.1,0.1,0.1,0.2,0.1l25.5,0.7
			C386.2,212.6,386.3,212.7,386.3,213z"/>
		<path class="st0" d="M348.7,316.3l-0.9,1.3c-0.2,0.2-0.4,0.3-0.6,0.1l-25.6-17.9c-0.3-0.2-0.3-0.4-0.1-0.6l0.9-1.2
			c0.2-0.3,0.4-0.3,0.6-0.1l21.4,14.9c0.1,0.1,0.1,0.1,0.2,0c0,0,0-0.1,0-0.2l-6.3-10.6c-0.1-0.2-0.2-0.4,0-0.6
			c0.1-0.2,0.3-0.3,0.6-0.2l12.1,2.2c0.1,0,0.1,0,0.2-0.1s0-0.1-0.1-0.1l-21.3-14.9c-0.3-0.2-0.3-0.4-0.1-0.6l0.9-1.2
			c0.2-0.3,0.4-0.3,0.6-0.1l25.6,17.9c0.3,0.2,0.3,0.4,0.1,0.6l-0.9,1.3c-0.1,0.2-0.3,0.3-0.6,0.2l-13.1-2.3c-0.1,0-0.1,0-0.2,0.1
			s0,0.1,0,0.2l6.7,11.4C348.9,315.9,348.9,316.1,348.7,316.3z"/>
		<path class="st0" d="M309.9,312.9l5.3,3.1c0,0,0.1,0.1,0.1,0c0.1,0,0.1,0,0.1-0.1l6-6.7c0,0,0.1-0.1,0.1-0.2s0-0.1-0.1-0.1l-3.6-5
			c-0.2-0.2-0.2-0.4,0-0.7l1-1.1c0.1-0.1,0.2-0.2,0.3-0.2c0.1,0,0.2,0.1,0.3,0.2l18.5,26.2c0.2,0.2,0.2,0.4,0,0.7l-1.2,1.4
			c-0.2,0.2-0.4,0.3-0.6,0.1l-27.9-15.8l-0.1-0.1c-0.2-0.2-0.2-0.4,0-0.6l1-1.2C309.4,312.8,309.6,312.8,309.9,312.9z M322.7,311
			l-5.5,6c-0.1,0.1,0,0.1,0,0.2l17.2,10c0.1,0,0.1,0,0.2,0c0,0,0-0.1,0-0.2l-11.7-16C322.9,310.9,322.8,310.9,322.7,311z M341,330.7
			c0.1,0,0.2,0.1,0.3,0.3l1.8,5.5c0.1,0.3,0,0.5-0.1,0.6l-0.8,0.9c-0.1,0.1-0.2,0.2-0.4,0.2c-0.1,0-0.2-0.1-0.3-0.3l-1.6-5.7
			c-0.1-0.3,0-0.5,0.1-0.6l0.6-0.7C340.7,330.8,340.9,330.7,341,330.7z"/>
		<path class="st0" d="M306.9,317.9c2,0.2,3.8,1.2,5.4,3l0.6,0.7c0.2,0.2,0.2,0.4,0,0.6l-1.1,1c-0.2,0.2-0.4,0.2-0.6,0l-0.6-0.7
			c-1.2-1.3-2.5-2.1-3.9-2.3c-1.4-0.2-2.7,0.2-3.7,1.1c-1.1,1-1.6,2.2-1.6,3.6s0.6,2.8,1.7,4.1c0.8,0.8,1.6,1.4,2.5,1.7
			c0.9,0.3,1.8,0.5,2.7,0.5c0.9,0,2.3-0.1,4.3-0.3c2-0.2,3.6-0.2,4.7-0.2s2.3,0.3,3.4,0.7c1.1,0.4,2.2,1.2,3.2,2.3
			c1.6,1.8,2.3,3.6,2.2,5.5c-0.1,1.9-0.9,3.5-2.5,4.9c-1.7,1.5-3.5,2.1-5.5,1.9s-3.8-1.2-5.5-3.1l-0.8-0.9c-0.2-0.2-0.2-0.4,0-0.7
			l1.1-1c0.2-0.2,0.4-0.2,0.6,0l0.8,0.9c1.2,1.3,2.5,2.1,3.9,2.4s2.7-0.2,3.8-1.2c1-0.9,1.5-2,1.5-3.3s-0.6-2.6-1.7-3.9
			c-0.7-0.8-1.4-1.3-2.2-1.6c-0.8-0.3-1.7-0.5-2.7-0.5s-2.4,0-4.2,0.2c-2.2,0.2-4,0.3-5.2,0.3s-2.3-0.2-3.3-0.7s-2-1.1-2.9-2.2
			c-1.7-1.9-2.5-3.8-2.5-5.8s0.8-3.8,2.5-5.2C303.1,318.3,304.9,317.7,306.9,317.9z"/>
		<path class="st0" d="M285.3,333.5l17.4,26c0.2,0.3,0.1,0.5-0.1,0.6l-1.3,0.8c-0.3,0.2-0.5,0.1-0.6-0.1l-17.4-26
			c-0.2-0.3-0.1-0.5,0.1-0.6l1.3-0.8C284.9,333.2,285.1,333.2,285.3,333.5z"/>
		<path class="st0" d="M281.1,372.7l-1.3,0.7c-0.3,0.1-0.5,0.1-0.6-0.2l-14.8-27.6c-0.1-0.3-0.1-0.5,0.2-0.6l1.6-0.8
			c0.2-0.1,0.4-0.1,0.6,0.1l20.8,18.1c0.1,0.1,0.1,0.1,0.2,0c0,0,0-0.1,0-0.2l-12.2-22.5c-0.1-0.3-0.1-0.5,0.2-0.6l1.3-0.7
			c0.3-0.1,0.5-0.1,0.6,0.2l14.8,27.6c0.1,0.3,0.1,0.5-0.2,0.6l-1.5,0.8c-0.2,0.1-0.4,0.1-0.6-0.1l-20.8-17.9
			c-0.1-0.1-0.1-0.1-0.2,0c0,0,0,0.1,0,0.2l12.1,22.4C281.5,372.3,281.4,372.6,281.1,372.7z"/>
		<path class="st0" d="M256.8,380.6l10.1-3.9c0.1,0,0.1-0.1,0.1-0.2l-4.5-11.6c0-0.1-0.1-0.1-0.2-0.1l-6.5,2.5
			c-0.3,0.1-0.5,0-0.6-0.3l-0.4-1.2c-0.1-0.3,0-0.5,0.3-0.6l6.5-2.5c0.1,0,0.1-0.1,0.1-0.2l-5.2-13.4c-0.1-0.3,0-0.5,0.3-0.6
			l1.4-0.5c0.3-0.1,0.5,0,0.6,0.3l11.3,29.2c0.1,0.3,0,0.5-0.3,0.6l-12.1,4.7c-0.3,0.1-0.5,0-0.6-0.3l-0.4-1.2
			C256.4,380.9,256.5,380.7,256.8,380.6z"/>
		<path class="st0" d="M241.3,355.8c1.7,1,2.8,2.7,3.4,4.9l4.3,16.9c0.6,2.3,0.4,4.2-0.6,6c-1,1.7-2.6,2.9-4.8,3.4s-4.2,0.3-5.9-0.7
			s-2.9-2.7-3.5-4.9l-4.3-16.9c-0.6-2.2-0.4-4.2,0.7-5.9c1-1.7,2.6-2.9,4.8-3.4C237.6,354.5,239.6,354.8,241.3,355.8z M232.7,359.6
			c-0.7,1.2-0.8,2.6-0.4,4.2l4.4,17.1c0.4,1.6,1.2,2.7,2.4,3.5s2.5,0.9,4,0.6c1.5-0.4,2.5-1.2,3.2-2.4c0.7-1.2,0.8-2.6,0.4-4.2
			l-4.4-17.1c-0.4-1.6-1.2-2.7-2.4-3.5c-1.2-0.7-2.5-0.9-3.9-0.6C234.5,357.6,233.4,358.4,232.7,359.6z"/>
		<path class="st0" d="M210.5,360.3l6.9,13.8c0,0.1,0.1,0.1,0.2,0.1l4.5-0.6c0.1,0,0.2-0.1,0.2-0.2l-1.8-14.3c0-0.3,0.1-0.5,0.4-0.5
			l1.5-0.2c0.3,0,0.5,0.1,0.5,0.4l4,31c0,0.3-0.1,0.5-0.4,0.5l-7.1,0.9c-2.1,0.3-3.9-0.3-5.5-1.7c-1.5-1.4-2.4-3.4-2.8-6
			c-0.3-2,0-3.8,0.7-5.4c0.7-1.5,1.8-2.7,3.2-3.4c0.1,0,0.2-0.1,0.1-0.2l-7-13.8l-0.1-0.2c0-0.2,0.1-0.3,0.4-0.4l1.5-0.2
			C210.2,359.9,210.4,360,210.5,360.3z M224.2,388.2l-1.6-12.5c0-0.1-0.1-0.2-0.2-0.2l-4.7,0.6c-1.5,0.2-2.6,0.9-3.4,2.2
			c-0.8,1.3-1,2.9-0.8,4.8s0.9,3.4,2,4.5s2.3,1.5,3.8,1.3l4.7-0.6C224.1,388.4,224.2,388.3,224.2,388.2z"/>
		<path class="st0" d="M189.6,392.6H188c-0.3,0-0.5-0.2-0.5-0.5l-0.1-31.3c0-0.3,0.2-0.5,0.5-0.5h1.5c0.3,0,0.5,0.2,0.5,0.5L190,387
			c0,0.1,0,0.1,0.1,0.1s0.1,0,0.1-0.1l5-11.2c0.1-0.2,0.2-0.4,0.5-0.4c0.2,0,0.4,0.1,0.5,0.3l5.1,11.2c0.1,0.1,0.1,0.1,0.2,0.1
			c0,0,0.1,0,0.1-0.1l-0.1-26c0-0.3,0.2-0.5,0.5-0.5h1.5c0.3,0,0.5,0.2,0.5,0.5l0.1,31.3c0,0.3-0.2,0.5-0.5,0.5H202
			c-0.2,0-0.4-0.1-0.5-0.3l-5.7-12c0-0.1-0.1-0.1-0.1-0.1c-0.1,0-0.1,0-0.1,0.1l-5.5,12.1C190,392.5,189.8,392.6,189.6,392.6z"/>
		<path class="st0" d="M169.9,358.8l0.5,6.1c0,0.1,0,0.1,0.1,0.1c0,0,0.1,0.1,0.2,0.1l8.9,1.1c0.1,0,0.1,0,0.2,0l0.1-0.1l2-5.8
			c0.1-0.3,0.3-0.4,0.6-0.3l1.5,0.2c0.2,0,0.3,0.1,0.3,0.2c0.1,0.1,0.1,0.2,0,0.4l-10.9,30.1c-0.1,0.3-0.3,0.4-0.6,0.3L171,391
			c-0.3,0-0.5-0.2-0.4-0.5l-3-31.9v-0.1c0-0.3,0.2-0.4,0.5-0.4l1.6,0.2C169.7,358.3,169.9,358.5,169.9,358.8z M178.9,368.2l-8.1-1
			c-0.1,0-0.1,0-0.2,0.2l1.6,19.8c0,0.1,0,0.1,0.1,0.1c0,0,0.1,0,0.1-0.1l6.6-18.8C179,368.3,178.9,368.2,178.9,368.2z"/>
		<path class="st0" d="M163.1,358.8c1,1.7,1.2,3.7,0.7,5.9l-4.2,17.2c-0.5,2.2-1.6,3.9-3.3,4.9s-3.6,1.3-5.7,0.7
			c-2.2-0.5-3.8-1.6-4.8-3.3c-1-1.7-1.2-3.6-0.7-5.8l0.2-0.8c0-0.1,0.1-0.3,0.2-0.3c0.1-0.1,0.2-0.1,0.3-0.1l1.5,0.3
			c0.3,0.1,0.4,0.3,0.3,0.6l-0.3,1.1c-0.4,1.5-0.2,2.9,0.4,4.1c0.7,1.2,1.7,1.9,3.2,2.3s2.8,0.2,3.9-0.5c1.1-0.7,1.9-1.9,2.3-3.4
			l4.3-17.5c0.4-1.5,0.2-2.9-0.4-4.1c-0.7-1.2-1.7-1.9-3.2-2.3s-2.8-0.2-3.9,0.6c-1.1,0.7-1.9,1.9-2.3,3.4l-0.3,1
			c-0.1,0.3-0.3,0.4-0.6,0.3l-1.5-0.5c-0.3-0.1-0.4-0.3-0.3-0.6l0.2-0.8c0.6-2.3,1.7-3.9,3.3-4.9c1.7-1,3.6-1.3,5.8-0.7
			C160.5,356,162.1,357.1,163.1,358.8z"/>
		<path class="st0" d="M145.6,352.7l-10.2,29.6c-0.1,0.3-0.3,0.4-0.6,0.3l-1.4-0.5c-0.3-0.1-0.4-0.3-0.3-0.6l10.2-29.6
			c0.1-0.3,0.3-0.4,0.6-0.3l1.4,0.5C145.7,352.2,145.7,352.4,145.6,352.7z"/>
		<path class="st0" d="M118.2,379.5c0,0.1-0.1,0.2-0.2,0.3l-4.7,3.4c-0.2,0.1-0.4,0.2-0.6,0.1l-1.1-0.5c-0.2-0.1-0.3-0.2-0.3-0.3
			c0-0.1,0.1-0.2,0.2-0.3l5-3.3c0.2-0.1,0.4-0.2,0.6-0.1l0.8,0.4C118.1,379.3,118.2,379.4,118.2,379.5z M135.4,350.4
			c0.7,1.9,0.6,3.9-0.4,6l-7.2,15.9c-1,2.1-2.4,3.6-4.2,4.3c-1.8,0.7-3.8,0.6-5.9-0.3s-3.5-2.3-4.2-4.2c-0.7-1.9-0.6-3.9,0.4-6
			l7.2-15.9c0.9-2.1,2.4-3.5,4.2-4.2s3.8-0.6,5.9,0.3C133.4,347.1,134.7,348.5,135.4,350.4z M126.4,348c-1.3,0.5-2.3,1.5-2.9,3
			l-7.2,16.1c-0.7,1.5-0.8,2.9-0.3,4.2s1.4,2.3,2.8,2.9s2.7,0.7,4,0.1c1.3-0.5,2.3-1.6,2.9-3l7.2-16.1c0.7-1.5,0.8-2.9,0.3-4.2
			c-0.5-1.3-1.4-2.3-2.7-2.9C129.1,347.5,127.7,347.5,126.4,348z"/>
		<path class="st0" d="M91.3,361.3l-1.3-0.8c-0.3-0.2-0.3-0.4-0.1-0.6l16.4-26.6c0.2-0.3,0.4-0.3,0.6-0.2l1.5,0.9
			c0.2,0.1,0.3,0.3,0.2,0.6l-5.2,27.1c0,0.1,0,0.2,0.1,0.2s0.1,0,0.2-0.1l13.4-21.8c0.2-0.3,0.4-0.3,0.6-0.1l1.3,0.8
			c0.3,0.2,0.3,0.4,0.1,0.6l-16.4,26.6c-0.2,0.3-0.4,0.3-0.6,0.1l-1.5-0.9c-0.2-0.1-0.3-0.3-0.2-0.6l5.1-27c0-0.1,0-0.2-0.1-0.2
			s-0.1,0-0.2,0.1l-13.4,21.7C91.7,361.4,91.5,361.5,91.3,361.3z"/>
		<path class="st0" d="M20.8,277l-0.7-1.4c-0.1-0.3-0.1-0.5,0.2-0.6l28.3-13.2c0.3-0.1,0.5-0.1,0.6,0.2l0.6,1.4
			c0.1,0.3,0.1,0.5-0.2,0.6L26,275c-0.1,0-0.1,0.1-0.1,0.1c0,0.1,0.1,0.1,0.1,0.1l12.3-0.2c0.3,0,0.4,0.1,0.5,0.3
			c0.1,0.2,0.1,0.4-0.1,0.6l-8,9.4c0,0.1,0,0.1,0,0.2c0,0,0.1,0,0.2,0l23.6-11c0.3-0.1,0.5-0.1,0.6,0.2l0.6,1.4
			c0.1,0.3,0.1,0.5-0.2,0.6l-28.3,13.2c-0.3,0.1-0.5,0.1-0.6-0.2l-0.7-1.4c-0.1-0.2-0.1-0.4,0.1-0.6l8.5-10.2c0-0.1,0.1-0.1,0-0.2
			c0-0.1-0.1-0.1-0.1-0.1l-13.3,0.1C21.1,277.3,20.9,277.2,20.8,277z"/>
		<path class="st0" d="M12.2,263.1c-0.1,0.1-0.2,0.1-0.4,0.1L6.1,262c-0.2-0.1-0.4-0.2-0.5-0.4l-0.4-1.2c-0.1-0.2,0-0.3,0-0.4
			c0.1-0.1,0.2-0.1,0.4-0.1l5.8,1.5c0.3,0.1,0.4,0.2,0.5,0.4l0.3,0.9C12.3,262.8,12.3,263,12.2,263.1z M43.2,245l-5.4,3
			c-0.1,0-0.1,0.1-0.1,0.1s0,0.1,0,0.2l2.8,8.6c0,0.1,0.1,0.1,0.1,0.1s0.1,0,0.2,0l6.1-0.7c0.3-0.1,0.5,0.1,0.5,0.4l0.5,1.4
			c0,0.1,0,0.3,0,0.4c-0.1,0.1-0.2,0.2-0.3,0.2l-31.9,2.9c-0.3,0-0.5-0.1-0.5-0.4l-0.6-1.8c-0.1-0.3,0-0.5,0.2-0.6l27.6-16.3h0.1
			c0.3-0.1,0.4,0,0.5,0.3l0.5,1.5C43.5,244.7,43.4,244.9,43.2,245z M38.4,257.1l-2.5-7.8c0-0.1-0.1-0.1-0.2-0.1L18.4,259
			c-0.1,0.1-0.1,0.1-0.1,0.1s0.1,0,0.2,0L38.4,257.1C38.4,257.3,38.4,257.2,38.4,257.1z"/>
		<path class="st0" d="M40.4,240c-1.2,1.6-2.9,2.7-5.3,3.2l-0.9,0.2c-0.3,0.1-0.5-0.1-0.5-0.4l-0.3-1.4c-0.1-0.3,0.1-0.5,0.4-0.5
			l0.9-0.2c1.8-0.4,3.1-1.1,4-2.2s1.2-2.4,0.9-3.8c-0.3-1.4-1.1-2.5-2.3-3.2s-2.7-0.9-4.4-0.5c-1.1,0.2-2,0.6-2.7,1.2
			c-0.7,0.6-1.3,1.3-1.8,2.1c-0.4,0.8-1.1,2.1-2,3.9c-0.8,1.8-1.6,3.2-2.2,4.2s-1.4,1.9-2.3,2.6c-1,0.8-2.2,1.3-3.6,1.6
			c-2.3,0.5-4.3,0.2-5.9-0.8s-2.6-2.5-3-4.6c-0.5-2.2-0.1-4.1,1.1-5.7c1.2-1.6,3-2.7,5.4-3.2l1.1-0.2c0.3-0.1,0.5,0.1,0.5,0.4
			l0.3,1.5c0.1,0.3-0.1,0.5-0.4,0.5l-1.1,0.2c-1.8,0.4-3.1,1.1-4,2.2c-0.9,1.1-1.2,2.4-0.9,3.9c0.3,1.3,1,2.3,2.1,3s2.5,0.8,4.3,0.5
			c1-0.2,1.9-0.6,2.5-1.1c0.7-0.5,1.3-1.2,1.8-2.1c0.5-0.8,1.2-2.1,1.9-3.8c1-2,1.7-3.6,2.4-4.6c0.6-1,1.4-1.9,2.2-2.6
			c0.9-0.7,2-1.1,3.3-1.4c2.5-0.5,4.6-0.2,6.3,0.8s2.8,2.6,3.3,4.8C41.9,236.5,41.6,238.3,40.4,240z"/>
		<path class="st0" d="M37.8,213.5l-31.2,2c-0.3,0-0.5-0.1-0.5-0.4L6,213.5c0-0.3,0.1-0.5,0.4-0.5l31.2-2c0.3,0,0.5,0.1,0.5,0.4
			l0.1,1.5C38.2,213.3,38.1,213.5,37.8,213.5z"/>
		<path class="st0" d="M5.9,190.2v-1.5c0-0.3,0.2-0.5,0.5-0.4l31.3,1c0.3,0,0.5,0.2,0.4,0.5l-0.1,1.8c0,0.2-0.1,0.4-0.4,0.5l-26.1,9
			c-0.1,0-0.1,0.1-0.1,0.1c0,0.1,0.1,0.1,0.2,0.1l25.6,0.8c0.3,0,0.5,0.2,0.4,0.5v1.5c0,0.3-0.2,0.5-0.5,0.4l-31.3-1
			c-0.3,0-0.5-0.2-0.4-0.5l0.1-1.7c0-0.2,0.1-0.4,0.4-0.5l25.9-9c0.1,0,0.1-0.1,0.1-0.1c0-0.1-0.1-0.1-0.2-0.1l-25.5-0.8
			C6.1,190.7,5.9,190.5,5.9,190.2z"/>
		<path class="st0" d="M11.3,165.1l-1.7,10.7c0,0.1,0,0.2,0.2,0.2l12.3,1.9c0.1,0,0.2,0,0.2-0.2l1.1-6.9c0-0.3,0.2-0.4,0.5-0.4
			l1.2,0.2c0.3,0,0.4,0.2,0.4,0.5l-1.1,6.9c0,0.1,0,0.2,0.2,0.2l14.2,2.2c0.3,0,0.4,0.2,0.4,0.5l-0.2,1.5c0,0.3-0.2,0.4-0.5,0.4
			L7.6,178c-0.3,0-0.4-0.2-0.4-0.5l2-12.8c0-0.3,0.2-0.4,0.5-0.4l1.2,0.2C11.2,164.6,11.3,164.8,11.3,165.1z"/>
		<path class="st0" d="M40.5,164.2c-1.7,1-3.7,1.1-5.9,0.5L17.8,160c-2.2-0.6-3.9-1.8-4.9-3.5s-1.2-3.7-0.6-5.8
			c0.6-2.2,1.8-3.8,3.5-4.7c1.8-1,3.8-1.1,6-0.5l16.8,4.7c2.2,0.6,3.8,1.8,4.8,3.5s1.2,3.7,0.6,5.9
			C43.4,161.6,42.3,163.2,40.5,164.2z M41.5,154.9c-0.7-1.2-1.9-2-3.4-2.5l-17-4.8c-1.6-0.4-3-0.3-4.2,0.3c-1.2,0.7-2.1,1.7-2.5,3.2
			c-0.4,1.4-0.2,2.8,0.5,4s1.9,2,3.4,2.4l17,4.8c1.6,0.4,3,0.3,4.2-0.3s2-1.7,2.5-3.1C42.4,157.4,42.2,156.1,41.5,154.9z"/>
		<path class="st0" d="M52.1,135.3l-15.4-1c-0.1,0-0.2,0-0.2,0.1l-1.8,4.2c0,0.1,0,0.2,0.1,0.2l13.3,5.6c0.3,0.1,0.4,0.3,0.2,0.6
			l-0.6,1.4c-0.1,0.3-0.3,0.4-0.6,0.2l-28.9-12.1c-0.3-0.1-0.4-0.3-0.2-0.6l2.8-6.6c0.8-2,2.2-3.3,4.2-3.9s4.2-0.4,6.5,0.6
			c1.9,0.8,3.3,1.9,4.3,3.3s1.4,2.9,1.3,4.5c0,0.1,0,0.2,0.2,0.2l15.5,0.9H53c0.2,0.1,0.2,0.3,0.1,0.5l-0.6,1.4
			C52.5,135.2,52.3,135.4,52.1,135.3z M21,133.2l11.6,4.9c0.1,0,0.2,0,0.2-0.1l1.8-4.3c0.6-1.4,0.5-2.7-0.2-4s-2-2.3-3.8-3.1
			c-1.8-0.8-3.4-0.9-4.9-0.5c-1.4,0.4-2.5,1.3-3,2.7l-1.8,4.3C20.9,133,20.9,133.1,21,133.2z"/>
		<path class="st0" d="M34.7,100.8l0.8-1.4c0.2-0.3,0.4-0.3,0.6-0.2l27,15.8c0.3,0.2,0.3,0.4,0.2,0.6l-0.8,1.3
			c-0.2,0.3-0.4,0.3-0.6,0.2L39.4,104c-0.1,0-0.1,0-0.2,0c0,0.1,0,0.1,0,0.2l7.1,10c0.2,0.2,0.2,0.4,0.1,0.6
			c-0.1,0.2-0.3,0.3-0.5,0.3l-12.2-1.2c-0.1,0-0.1,0.1-0.2,0.1c0,0,0,0.1,0.1,0.1L56,127.2c0.3,0.2,0.3,0.4,0.2,0.6l-0.8,1.3
			c-0.2,0.3-0.4,0.3-0.6,0.2l-27-15.8c-0.3-0.2-0.3-0.4-0.2-0.6l0.8-1.4c0.1-0.2,0.3-0.3,0.5-0.3l13.2,1.2c0.1,0,0.1,0,0.1-0.1
			s0-0.1,0-0.2l-7.6-10.8C34.6,101.2,34.6,101,34.7,100.8z"/>
		<path class="st0" d="M73.7,101l-5.5-2.7c0,0-0.1,0-0.2,0s-0.1,0.1-0.1,0.1l-5.5,7.2c0,0-0.1,0.1-0.1,0.2s0,0.1,0.1,0.1l4,4.7
			c0.2,0.2,0.2,0.4,0,0.7l-0.9,1.2c-0.1,0.1-0.2,0.2-0.3,0.2c-0.1,0-0.2-0.1-0.3-0.2L44.3,87.8c-0.2-0.2-0.2-0.4,0-0.7l1.1-1.5
			c0.2-0.2,0.4-0.3,0.6-0.1L75.2,99l0.1,0.1c0.2,0.2,0.2,0.4,0.1,0.6l-1,1.2C74.2,101.1,74,101.1,73.7,101z M61.1,104l5-6.5
			c0.1-0.1,0-0.1-0.1-0.2l-18-8.6c-0.1,0-0.1,0-0.2,0c0,0,0,0.1,0.1,0.2L60.8,104C60.9,104,61,104,61.1,104z"/>
		<path class="st0" d="M77.2,95c-2,0-3.8-0.8-5.4-2.4L59,80.4c-1.7-1.6-2.5-3.4-2.6-5.3c0-1.9,0.7-3.7,2.3-5.3
			c1.6-1.6,3.3-2.5,5.3-2.5s3.7,0.8,5.4,2.4l0.6,0.6c0.1,0.1,0.2,0.2,0.2,0.4c0,0.1,0,0.2-0.1,0.3l-1,1.2c-0.2,0.2-0.4,0.2-0.6,0
			l-0.8-0.8c-1.1-1.1-2.4-1.7-3.7-1.7s-2.5,0.5-3.6,1.6c-1,1.1-1.5,2.3-1.5,3.6s0.7,2.6,1.8,3.7l13,12.5c1.1,1.1,2.4,1.7,3.7,1.7
			c1.3,0,2.5-0.5,3.6-1.6c1-1.1,1.5-2.3,1.5-3.7c-0.1-1.4-0.7-2.6-1.8-3.7L79.8,83c-0.2-0.2-0.2-0.4,0-0.7l1.1-1
			c0.2-0.2,0.4-0.2,0.7,0l0.6,0.5c1.7,1.6,2.5,3.4,2.6,5.4s-0.7,3.7-2.3,5.4C80.9,94.2,79.1,95,77.2,95z"/>
		<path class="st0" d="M91.2,83L70.7,59.4c-0.2-0.2-0.2-0.4,0-0.6l1.1-1c0.2-0.2,0.4-0.2,0.6,0l20.5,23.6c0.2,0.2,0.2,0.4,0,0.6
			l-1.1,1C91.6,83.3,91.4,83.3,91.2,83z"/>
		<path class="st0" d="M81.7,45.9c-0.1-0.1-0.2-0.2-0.2-0.3l-0.6-5.8c0-0.3,0.1-0.5,0.3-0.6l1-0.7c0.1-0.1,0.3-0.1,0.4-0.1
			c0.1,0.1,0.2,0.2,0.2,0.3l0.4,6c0,0.3-0.1,0.5-0.3,0.6l-0.7,0.5C82,45.9,81.9,45.9,81.7,45.9z M98.3,75.4c-2-0.3-3.6-1.4-5-3.3
			L83.2,57.9c-1.4-1.9-1.9-3.8-1.6-5.8s1.4-3.6,3.2-4.9c1.8-1.3,3.8-1.8,5.7-1.5c2,0.3,3.6,1.4,5,3.3l10.2,14.2
			c1.3,1.9,1.9,3.8,1.5,5.8s-1.4,3.6-3.2,5C102.2,75.2,100.3,75.7,98.3,75.4z M104.9,68.7c0.2-1.4-0.2-2.7-1.1-4.1L93.5,50.4
			c-0.9-1.3-2.1-2.1-3.5-2.4c-1.4-0.3-2.7,0-3.9,0.9c-1.2,0.9-1.9,2-2.1,3.4s0.2,2.7,1.2,4.1l10.3,14.3c0.9,1.3,2.1,2.1,3.5,2.4
			s2.7,0,3.9-0.9C104,71.3,104.7,70.1,104.9,68.7z"/>
		<path class="st0" d="M111,31.7l1.3-0.7c0.3-0.1,0.5-0.1,0.6,0.2l14.8,27.5c0.1,0.3,0.1,0.5-0.2,0.6l-1.6,0.9
			c-0.2,0.1-0.4,0.1-0.6-0.1l-20.8-18c-0.1-0.1-0.1-0.1-0.2,0c0,0,0,0.1,0,0.2l12.2,22.5c0.1,0.3,0.1,0.5-0.2,0.6l-1.3,0.7
			c-0.3,0.1-0.5,0.1-0.6-0.2L99.5,38.3c-0.1-0.3-0.1-0.5,0.2-0.6l1.5-0.8c0.2-0.1,0.4-0.1,0.6,0.1l20.8,17.9c0.1,0.1,0.1,0.1,0.2,0
			c0,0,0-0.1,0-0.2l-12.1-22.4C110.7,32,110.7,31.8,111,31.7z"/>
	</g>
	<circle class="st0" cx="160" cy="32.4" r="4.9"/>
	<circle class="st0" cx="361.1" cy="254.8" r="4.9"/>
	<circle class="st0" cx="70" cy="320.2" r="4.9"/>
</g>
</svg>
