<?xml version="1.0" encoding="utf-8"?>
<!-- Generator: Adobe Illustrator 24.0.0, SVG Export Plug-In . SVG Version: 6.00 Build 0)  -->
<svg version="1.1" id="Capa_1" xmlns="http://www.w3.org/2000/svg" xmlns:xlink="http://www.w3.org/1999/xlink" x="0px" y="0px"
	 viewBox="0 0 70 70" style="enable-background:new 0 0 70 70;" xml:space="preserve">
<style type="text/css">
	.st0{fill:#BBDFD8;}
	.st1{fill:#003631;}
</style>
<g>
	<path class="st0" d="M0.6,61.8V8.2C0.6,4,4,0.6,8.2,0.6l53.6,0c4.2,0,7.6,3.4,7.6,7.6v53.6c0,4.2-3.4,7.6-7.6,7.6l-53.6,0
		C4,69.4,0.6,66,0.6,61.8z"/>
	<g>
		<path class="st1" d="M45.7,22c-1.3,0-2.4,1.1-2.4,2.4c0,1.3,1.1,2.4,2.4,2.4c1.3,0,2.4-1.1,2.4-2.4C48.1,23.1,47,22,45.7,22z"/>
		<path class="st1" d="M35.2,25.1c-5.5,0-9.9,4.5-9.9,9.9c0,5.5,4.5,9.9,9.9,9.9c5.5,0,9.9-4.5,9.9-9.9
			C45.1,29.5,40.6,25.1,35.2,25.1z M35.2,41.4c-3.5,0-6.4-2.9-6.4-6.4s2.9-6.4,6.4-6.4c3.5,0,6.4,2.9,6.4,6.4S38.7,41.4,35.2,41.4z"
			/>
		<path class="st1" d="M43.1,55.2H26.9c-6.7,0-12.1-5.4-12.1-12.1V26.9c0-6.7,5.4-12.1,12.1-12.1h16.1c6.7,0,12.1,5.4,12.1,12.1
			v16.1C55.2,49.8,49.8,55.2,43.1,55.2z M26.9,18.6c-4.6,0-8.3,3.7-8.3,8.3v16.1c0,4.6,3.7,8.3,8.3,8.3h16.1c4.6,0,8.3-3.7,8.3-8.3
			V26.9c0-4.6-3.7-8.3-8.3-8.3H26.9z"/>
	</g>
</g>
</svg>
