<?xml version="1.0" encoding="utf-8"?>
<!-- Generator: Adobe Illustrator 24.0.0, SVG Export Plug-In . SVG Version: 6.00 Build 0)  -->
<svg version="1.1" id="Capa_5" xmlns="http://www.w3.org/2000/svg" xmlns:xlink="http://www.w3.org/1999/xlink" x="0px" y="0px"
	 viewBox="0 0 70 70" style="enable-background:new 0 0 70 70;" xml:space="preserve">
<style type="text/css">
	.st0{fill:#00C08B;}
</style>
<g>
	<path class="st0" d="M55.4,16.2L35,5.9L14.6,16.2L3.3,32l6.4,4.2l0.6-0.9v24.7c0,2.2,1.8,4,4,4h6.7h27.7h6.7c2.2,0,4-1.8,4-4V35.4
		l0.6,0.9l6.4-4.2L55.4,16.2z M33.2,53l-11.9,8.2V44.9L33.2,53z M23.5,44h22.9L35,51.8L23.5,44z M23.5,62.1L35,54.3l11.5,7.9H23.5z
		 M48.7,61.2L36.8,53l11.9-8.2V61.2z M57.6,60.1c0,1.1-0.9,2-2,2h-4.9V43.8c0-1-0.8-1.8-1.8-1.8H21.1c-1,0-1.8,0.8-1.8,1.8v18.3
		h-4.9c-1.1,0-2-0.9-2-2V32.6l7.5-10.6L35,14.4l15.1,7.5l7.5,10.6V60.1z M51.4,20.4L35,12.2l-16.4,8.2L9.3,33.5l-3.1-2L16,17.8
		l19-9.7l19,9.7l9.8,13.7l-3.1,2L51.4,20.4z"/>
	<path class="st0" d="M31.3,26.1H21.1c-0.8,0-1.5,0.7-1.5,1.5v8c0,0.8,0.7,1.5,1.5,1.5h10.3c0.8,0,1.5-0.7,1.5-1.5v-8
		C32.8,26.8,32.1,26.1,31.3,26.1z M30.8,35.1h-9.2v-7h9.2V35.1z"/>
	<path class="st0" d="M38.9,26.1c-0.8,0-1.5,0.7-1.5,1.5v8c0,0.8,0.7,1.5,1.5,1.5h10.3c0.8,0,1.5-0.7,1.5-1.5v-8
		c0-0.8-0.7-1.5-1.5-1.5H38.9z M48.7,35.1h-9.2v-7h9.2V35.1z"/>
</g>
</svg>
