<?xml version="1.0" encoding="utf-8"?>
<!-- Generator: Adobe Illustrator 24.0.0, SVG Export Plug-In . SVG Version: 6.00 Build 0)  -->
<svg version="1.1" id="Capa_4" xmlns="http://www.w3.org/2000/svg" xmlns:xlink="http://www.w3.org/1999/xlink" x="0px" y="0px"
	 viewBox="0 0 70 70" style="enable-background:new 0 0 70 70;" xml:space="preserve">
<style type="text/css">
	.st0{fill:#00C08B;}
</style>
<g>
	<path class="st0" d="M55.6,8.9H47v50.2H7.3v2H47h1h14.8L55.6,8.9z M49,10.9h4.9l0.7,5.2H49V10.9z M49,18.1h5.9l5.6,41H49V18.1z"/>
	<path class="st0" d="M8.4,19.1c1.5,0,2.1,0.4,3,0.9c0.9,0.6,2,1.2,4,1.2c2,0,3.1-0.6,4-1.2c0.8-0.5,1.5-0.9,3-0.9
		c1.5,0,2.1,0.4,3,0.9c0.9,0.6,2,1.2,4,1.2c2,0,3.1-0.6,4-1.2c0.8-0.5,1.5-0.9,3-0.9c1.5,0,2.1,0.4,3,0.9c0.9,0.6,2,1.2,4,1.2
		c0.6,0,1-0.4,1-1c0-0.6-0.4-1-1-1c-1.5,0-2.1-0.4-3-0.9c-0.9-0.6-2-1.2-4-1.2c-2,0-3.1,0.6-4,1.2c-0.8,0.5-1.5,0.9-3,0.9
		c-1.5,0-2.1-0.4-3-0.9c-0.9-0.6-2-1.2-4-1.2c-2,0-3.1,0.6-4,1.2c-0.8,0.5-1.5,0.9-3,0.9c-1.5,0-2.1-0.4-3-0.9c-0.9-0.6-2-1.2-4-1.2
		c-0.6,0-1,0.4-1,1C7.4,18.6,7.8,19.1,8.4,19.1z"/>
	<path class="st0" d="M8.4,25.8c1.5,0,2.1,0.4,3,0.9c0.9,0.6,2,1.2,4,1.2c2,0,3.1-0.6,4-1.2c0.8-0.5,1.5-0.9,3-0.9
		c1.5,0,2.1,0.4,3,0.9c0.9,0.6,2,1.2,4,1.2c2,0,3.1-0.6,4-1.2c0.8-0.5,1.5-0.9,3-0.9c1.5,0,2.1,0.4,3,0.9c0.9,0.6,2,1.2,4,1.2
		c0.6,0,1-0.4,1-1s-0.4-1-1-1c-1.5,0-2.1-0.4-3-0.9c-0.9-0.6-2-1.2-4-1.2c-2,0-3.1,0.6-4,1.2c-0.8,0.5-1.5,0.9-3,0.9
		c-1.5,0-2.1-0.4-3-0.9c-0.9-0.6-2-1.2-4-1.2c-2,0-3.1,0.6-4,1.2c-0.8,0.5-1.5,0.9-3,0.9c-1.5,0-2.1-0.4-3-0.9c-0.9-0.6-2-1.2-4-1.2
		c-0.6,0-1,0.4-1,1C7.4,25.3,7.8,25.8,8.4,25.8z"/>
	<path class="st0" d="M8.4,32.4c1.5,0,2.1,0.4,3,0.9c0.9,0.6,2,1.2,4,1.2c2,0,3.1-0.6,4-1.2c0.8-0.5,1.5-0.9,3-0.9
		c1.5,0,2.1,0.4,3,0.9c0.9,0.6,2,1.2,4,1.2c2,0,3.1-0.6,4-1.2c0.8-0.5,1.5-0.9,3-0.9c1.5,0,2.1,0.4,3,0.9c0.9,0.6,2,1.2,4,1.2
		c0.6,0,1-0.4,1-1c0-0.6-0.4-1-1-1c-1.5,0-2.1-0.4-3-0.9c-0.9-0.6-2-1.2-4-1.2c-2,0-3.1,0.6-4,1.2c-0.8,0.5-1.5,0.9-3,0.9
		c-1.5,0-2.1-0.4-3-0.9c-0.9-0.6-2-1.2-4-1.2c-2,0-3.1,0.6-4,1.2c-0.8,0.5-1.5,0.9-3,0.9c-1.5,0-2.1-0.4-3-0.9c-0.9-0.6-2-1.2-4-1.2
		c-0.6,0-1,0.4-1,1C7.4,32,7.8,32.4,8.4,32.4z"/>
	<path class="st0" d="M8.4,39.1c1.5,0,2.1,0.4,3,0.9c0.9,0.6,2,1.2,4,1.2c2,0,3.1-0.6,4-1.2c0.8-0.5,1.5-0.9,3-0.9
		c1.5,0,2.1,0.4,3,0.9c0.9,0.6,2,1.2,4,1.2c2,0,3.1-0.6,4-1.2c0.8-0.5,1.5-0.9,3-0.9c1.5,0,2.1,0.4,3,0.9c0.9,0.6,2,1.2,4,1.2
		c0.6,0,1-0.4,1-1c0-0.6-0.4-1-1-1c-1.5,0-2.1-0.4-3-0.9c-0.9-0.6-2-1.2-4-1.2c-2,0-3.1,0.6-4,1.2c-0.8,0.5-1.5,0.9-3,0.9
		c-1.5,0-2.1-0.4-3-0.9c-0.9-0.6-2-1.2-4-1.2c-2,0-3.1,0.6-4,1.2c-0.8,0.5-1.5,0.9-3,0.9c-1.5,0-2.1-0.4-3-0.9c-0.9-0.6-2-1.2-4-1.2
		c-0.6,0-1,0.4-1,1C7.4,38.7,7.8,39.1,8.4,39.1z"/>
	<path class="st0" d="M8.4,45.8c1.5,0,2.1,0.4,3,0.9c0.9,0.6,2,1.2,4,1.2c2,0,3.1-0.6,4-1.2c0.8-0.5,1.5-0.9,3-0.9
		c1.5,0,2.1,0.4,3,0.9c0.9,0.6,2,1.2,4,1.2c2,0,3.1-0.6,4-1.2c0.8-0.5,1.5-0.9,3-0.9c1.5,0,2.1,0.4,3,0.9c0.9,0.6,2,1.2,4,1.2
		c0.6,0,1-0.4,1-1s-0.4-1-1-1c-1.5,0-2.1-0.4-3-0.9c-0.9-0.6-2-1.2-4-1.2c-2,0-3.1,0.6-4,1.2c-0.8,0.5-1.5,0.9-3,0.9
		c-1.5,0-2.1-0.4-3-0.9c-0.9-0.6-2-1.2-4-1.2c-2,0-3.1,0.6-4,1.2c-0.8,0.5-1.5,0.9-3,0.9c-1.5,0-2.1-0.4-3-0.9c-0.9-0.6-2-1.2-4-1.2
		c-0.6,0-1,0.4-1,1C7.4,45.4,7.8,45.8,8.4,45.8z"/>
	<path class="st0" d="M8.4,52.5c1.5,0,2.1,0.4,3,0.9c0.9,0.6,2,1.2,4,1.2c2,0,3.1-0.6,4-1.2c0.8-0.5,1.5-0.9,3-0.9
		c1.5,0,2.1,0.4,3,0.9c0.9,0.6,2,1.2,4,1.2c2,0,3.1-0.6,4-1.2c0.8-0.5,1.5-0.9,3-0.9c1.5,0,2.1,0.4,3,0.9c0.9,0.6,2,1.2,4,1.2
		c0.6,0,1-0.4,1-1c0-0.6-0.4-1-1-1c-1.5,0-2.1-0.4-3-0.9c-0.9-0.6-2-1.2-4-1.2c-2,0-3.1,0.6-4,1.2c-0.8,0.5-1.5,0.9-3,0.9
		c-1.5,0-2.1-0.4-3-0.9c-0.9-0.6-2-1.2-4-1.2c-2,0-3.1,0.6-4,1.2c-0.8,0.5-1.5,0.9-3,0.9c-1.5,0-2.1-0.4-3-0.9c-0.9-0.6-2-1.2-4-1.2
		c-0.6,0-1,0.4-1,1C7.4,52.1,7.8,52.5,8.4,52.5z"/>
</g>
</svg>
