<?xml version="1.0" encoding="UTF-8" standalone="no"?>
<!DOCTYPE svg PUBLIC "-//W3C//DTD SVG 1.1//EN" "http://www.w3.org/Graphics/SVG/1.1/DTD/svg11.dtd">
<svg width="100%" height="100%" viewBox="0 0 200 62" version="1.1" xmlns="http://www.w3.org/2000/svg" xmlns:xlink="http://www.w3.org/1999/xlink" xml:space="preserve" xmlns:serif="http://www.serif.com/" style="fill-rule:evenodd;clip-rule:evenodd;stroke-linejoin:round;stroke-miterlimit:2;">
    <g>
        <path d="M5.9,26.6C6.3,26.6 6.6,26.8 6.6,27.2L6.6,60.3L1.5,60.3C1.1,60.3 0.8,60 0.8,59.6L0.8,26.6L5.9,26.6ZM5.9,11.4C6.3,11.4 6.6,11.8 6.6,12.2L6.6,17.7L1.5,17.7C1.1,17.7 0.8,17.4 0.8,17L0.8,11.4L5.9,11.4ZM33.8,26.1C39.3,26.1 43.7,30.6 43.7,36L43.7,51C43.7,56.5 39.3,60.9 33.8,60.9L24.9,60.9C19.4,60.9 15,56.5 15,51L15,36C15,30.6 19.4,26.1 24.9,26.1L33.8,26.1ZM37.8,51.2L37.8,35.7C37.8,33.5 35.9,31.7 33.7,31.7L24.8,31.7C22.6,31.7 20.8,33.5 20.8,35.7L20.8,51.2C20.8,53.5 22.6,55.3 24.8,55.3L33.7,55.3C36,55.3 37.8,53.4 37.8,51.2ZM140.4,26.6C145.8,26.6 150.2,31 150.1,36.4L150.1,60.3L145,60.3C144.6,60.3 144.3,60 144.3,59.6L144.3,36.1C144.3,33.9 142.5,32.1 140.3,32.1L131.5,32.1C132.2,32.5 132.7,33.2 132.7,34L132.7,60.2L127.6,60.2C127.2,60.2 126.9,59.9 126.9,59.5L126.9,32.8C126.9,32.4 126.6,32.1 126.2,32.1L116,32.1C115.6,32.1 115.4,32.4 115.3,32.7L115.3,59.7C115.3,60.1 115,60.4 114.6,60.4L109.5,60.4L109.5,31C109.5,28.6 111.5,26.6 113.9,26.6L140.4,26.6ZM67.9,54.7C68.3,54.7 68.6,55.1 68.7,55.6L68.7,60.5L61.9,60.5C56.5,60.5 52,56.1 52,50.6L52,10.3L57.1,10.3C57.5,10.3 57.8,10.6 57.8,11L57.8,27.9C58.2,27.2 58.9,26.7 59.8,26.7L72.6,26.7L67.1,32.2L57.8,32.2L57.8,50.7C57.8,52.9 59.6,54.7 61.8,54.7L67.9,54.7ZM91.4,26.6C96.9,26.6 101.3,29.9 101.3,36L101.3,58.2C101.3,59.5 100.3,60.4 99.1,60.4L83.3,60.4C77.8,60.4 73.4,56 73.4,50.5L73.4,48.4C73.4,42.9 77.8,38.5 83.3,38.5L94.8,38.5C95.2,38.5 95.5,38.2 95.5,37.8L95.5,36.1C95.5,33.9 94,32.1 91.4,32.1L75.9,32.1L81.4,26.6L91.4,26.6ZM95.5,53.9L95.5,43.1C95.1,43.7 94.4,44 93.7,44.1L83.3,44.1C81.1,44.1 79.3,45.9 79.3,48.1L79.3,50.6C79.3,52.8 81.1,54.6 83.3,54.6L94.8,54.6C95.2,54.6 95.5,54.3 95.5,53.9Z" style="fill:rgb(29,37,44);"/>
        <g>
            <path d="M169.5,21.1L166.7,15.3C166.5,14.8 166.5,14.3 166.9,13.9L169.1,11.1C169.4,10.8 169.8,10.6 170.2,10.6L187.7,10.6C188.3,10.6 188.7,10 188.4,9.4L184.7,1.7C184.6,1.4 184.3,1.2 184,1.2L164.4,1.2C163.8,1.2 163.4,1.8 163.7,2.4L166.5,8.2C166.7,8.7 166.7,9.2 166.3,9.6L164.1,12.4C163.8,12.7 163.4,12.9 163,12.9L156.2,12.9C155.6,12.9 155.2,13.5 155.5,14.1L159.2,21.8C159.3,22.1 159.6,22.3 159.9,22.3L168.8,22.3C169.4,22.3 169.8,21.6 169.5,21.1Z" style="fill:rgb(0,192,139);fill-rule:nonzero;"/>
            <path d="M199.2,23L195.5,15.3C195.4,15 195.1,14.8 194.8,14.8L185.9,14.8C185.3,14.8 184.9,15.4 185.2,16L188,21.8C188.2,22.3 188.2,22.8 187.9,23.2L185.8,25.9C185.5,26.2 185.1,26.4 184.7,26.4L167.2,26.4C166.6,26.4 166.2,27 166.5,27.6L170.2,35.3C170.3,35.6 170.6,35.8 170.9,35.8L190.5,35.8C191.1,35.8 191.5,35.2 191.2,34.6L188.4,28.8C188.2,28.3 188.2,27.8 188.5,27.4L190.6,24.7C190.9,24.4 191.3,24.2 191.7,24.2L198.5,24.2C199,24.2 199.4,23.5 199.2,23Z" style="fill:rgb(0,192,139);fill-rule:nonzero;"/>
        </g>
    </g>
</svg>
