<?xml version="1.0" encoding="utf-8"?>
<!-- Generator: Adobe Illustrator 24.0.0, SVG Export Plug-In . SVG Version: 6.00 Build 0)  -->
<svg version="1.1" id="Capa_1" xmlns="http://www.w3.org/2000/svg" xmlns:xlink="http://www.w3.org/1999/xlink" x="0px" y="0px"
	 viewBox="0 0 200 62" style="enable-background:new 0 0 200 62;" xml:space="preserve">
<style type="text/css">
	.st0{fill:#FFFFFF;}
	.st1{fill:#00C08B;}
</style>
<g>
	<g>
		<path class="st0" d="M5.9,26.6H0.8v33c0,0.4,0.3,0.7,0.7,0.7h5.1V27.2C6.6,26.8,6.3,26.6,5.9,26.6z"/>
		<path class="st0" d="M5.9,11.4H0.8V17c0,0.4,0.3,0.7,0.7,0.7h5.1v-5.5C6.6,11.8,6.3,11.4,5.9,11.4z"/>
		<path class="st0" d="M33.8,26.1h-8.9c-5.5,0-9.9,4.5-9.9,9.9v15c0,5.5,4.4,9.9,9.9,9.9h8.9c5.5,0,9.9-4.4,9.9-9.9V36
			C43.7,30.6,39.3,26.1,33.8,26.1z M37.8,51.2c0,2.2-1.8,4.1-4.1,4.1h-8.9c-2.2,0-4-1.8-4-4.1V35.7c0-2.2,1.8-4,4-4h8.9
			c2.2,0,4.1,1.8,4.1,4V51.2z"/>
		<path class="st0" d="M140.4,26.6h-26.5c-2.4,0-4.4,2-4.4,4.4v29.4h5.1c0.4,0,0.7-0.3,0.7-0.7V32.7c0.1-0.3,0.3-0.6,0.7-0.6h10.2
			c0.4,0,0.7,0.3,0.7,0.7v26.7c0,0.4,0.3,0.7,0.7,0.7h5.1V34c0-0.8-0.5-1.5-1.2-1.9h8.8c2.2,0,4,1.8,4,4v23.5c0,0.4,0.3,0.7,0.7,0.7
			h5.1V36.4C150.2,31,145.8,26.6,140.4,26.6z"/>
		<path class="st0" d="M67.9,54.7h-6.1c-2.2,0-4-1.8-4-4V32.2h9.3l5.5-5.5H59.8c-0.9,0-1.6,0.5-2,1.2V11c0-0.4-0.3-0.7-0.7-0.7H52
			v40.3c0,5.5,4.5,9.9,9.9,9.9h6.8v-4.9C68.6,55.1,68.3,54.7,67.9,54.7z"/>
		<path class="st0" d="M91.4,26.6h-10l-5.5,5.5h15.5c2.6,0,4.1,1.8,4.1,4v1.7c0,0.4-0.3,0.7-0.7,0.7H83.3c-5.5,0-9.9,4.4-9.9,9.9
			v2.1c0,5.5,4.4,9.9,9.9,9.9h12.1h3h0.7c1.2,0,2.2-0.9,2.2-2.2V36C101.3,29.9,96.9,26.6,91.4,26.6z M95.5,53.9
			c0,0.4-0.3,0.7-0.7,0.7H83.3c-2.2,0-4-1.8-4-4v-2.5c0-2.2,1.8-4,4-4h10.4c0.7-0.1,1.4-0.4,1.8-1V53.9z"/>
	</g>
	<g>
		<path class="st1" d="M169.5,21.1l-2.8-5.8c-0.2-0.5-0.2-1,0.2-1.4l2.2-2.8c0.3-0.3,0.7-0.5,1.1-0.5h17.5c0.6,0,1-0.6,0.7-1.2
			l-3.7-7.7c-0.1-0.3-0.4-0.5-0.7-0.5h-19.6c-0.6,0-1,0.6-0.7,1.2l2.8,5.8c0.2,0.5,0.2,1-0.2,1.4l-2.2,2.8c-0.3,0.3-0.7,0.5-1.1,0.5
			h-6.8c-0.6,0-1,0.6-0.7,1.2l3.7,7.7c0.1,0.3,0.4,0.5,0.7,0.5h8.9C169.4,22.3,169.8,21.6,169.5,21.1z"/>
		<path class="st1" d="M199.2,23l-3.7-7.7c-0.1-0.3-0.4-0.5-0.7-0.5h-8.9c-0.6,0-1,0.6-0.7,1.2l2.8,5.8c0.2,0.5,0.2,1-0.1,1.4
			l-2.1,2.7c-0.3,0.3-0.7,0.5-1.1,0.5h-17.5c-0.6,0-1,0.6-0.7,1.2l3.7,7.7c0.1,0.3,0.4,0.5,0.7,0.5h19.6c0.6,0,1-0.6,0.7-1.2
			l-2.8-5.8c-0.2-0.5-0.2-1,0.1-1.4l2.1-2.7c0.3-0.3,0.7-0.5,1.1-0.5h6.8C199,24.2,199.4,23.5,199.2,23z"/>
	</g>
</g>
</svg>
