<?xml version="1.0" encoding="utf-8"?>
<!-- Generator: Adobe Illustrator 24.0.0, SVG Export Plug-In . SVG Version: 6.00 Build 0)  -->
<svg version="1.1" id="Capa_2" xmlns="http://www.w3.org/2000/svg" xmlns:xlink="http://www.w3.org/1999/xlink" x="0px" y="0px"
	 viewBox="0 0 70 70" style="enable-background:new 0 0 70 70;" xml:space="preserve">
<style type="text/css">
	.st0{fill:#00C08B;}
</style>
<g>
	<path class="st0" d="M67.9,61.6h-6.2V37.5c0-0.6-0.4-1-1-1h-7.8V20.2c0-0.6-0.4-1-1-1h-4.6c0-0.2,0-0.3,0-0.5
		c0-6.8-5.5-12.3-12.3-12.3s-12.3,5.5-12.3,12.3c0,0.2,0,0.3,0,0.5h-4.6c-0.6,0-1,0.4-1,1v16.3H9.3c-0.6,0-1,0.4-1,1v24.1H2.1
		c-0.6,0-1,0.4-1,1c0,0.6,0.4,1,1,1h7.2h8.8h11.6h10.6h11.6h8.8h7.2c0.6,0,1-0.4,1-1C68.9,62.1,68.5,61.6,67.9,61.6z M17.1,61.6
		h-6.8V38.5h6.8V61.6z M35,8.4c5.7,0,10.3,4.6,10.3,10.3c0,0.2,0,0.3,0,0.5c0,0.7-0.1,1.4-0.3,2c-1.1,4.5-5.2,7.8-10,7.8
		s-8.9-3.4-10-7.8c-0.2-0.6-0.3-1.3-0.3-2c0-0.2,0-0.3,0-0.5C24.7,13,29.3,8.4,35,8.4z M39.3,61.6h-8.6v-9.8h8.6V61.6z M50.9,37.5
		v24.1h-9.6V50.8c0-0.6-0.4-1-1-1H29.7c-0.6,0-1,0.4-1,1v10.8h-9.6V37.5V21.2h3.8C24.1,26.8,29.1,31,35,31c5.9,0,10.9-4.2,12.1-9.8
		h3.8V37.5z M59.7,61.6h-6.8V38.5h6.8V61.6z"/>
	<path class="st0" d="M42.5,41.3h-15c-0.6,0-1,0.4-1,1c0,0.6,0.4,1,1,1h15c0.6,0,1-0.4,1-1C43.5,41.7,43.1,41.3,42.5,41.3z"/>
	<path class="st0" d="M42.5,34.9h-15c-0.6,0-1,0.4-1,1c0,0.6,0.4,1,1,1h15c0.6,0,1-0.4,1-1C43.5,35.4,43.1,34.9,42.5,34.9z"/>
	<polygon class="st0" points="34,21.2 34,24.7 36,24.7 36,21.2 36,19.7 41,19.7 41,19.2 41,17.7 36,17.7 36,12.8 34,12.8 34,17.7 
		29,17.7 29,19.2 29,19.7 34,19.7 	"/>
</g>
</svg>
