<?xml version="1.0" encoding="utf-8"?>
<!-- Generator: Adobe Illustrator 24.0.0, SVG Export Plug-In . SVG Version: 6.00 Build 0)  -->
<svg version="1.1" id="Capa_3" xmlns="http://www.w3.org/2000/svg" xmlns:xlink="http://www.w3.org/1999/xlink" x="0px" y="0px"
	 viewBox="0 0 70 70" style="enable-background:new 0 0 70 70;" xml:space="preserve">
<style type="text/css">
	.st0{fill:#00C08B;}
</style>
<g>
	<path class="st0" d="M48.3,26.8c-0.2-0.3-0.5-0.5-0.9-0.5h-8.9l2.6-16.8c0-0.3,0-0.6-0.2-0.8c-0.2-0.2-0.5-0.4-0.8-0.4H26.8
		c-0.5,0-1,0.4-1,1l-1.2,27.8c0,0.3,0.1,0.5,0.3,0.7c0.2,0.2,0.5,0.3,0.7,0.3h4.8L29,60.6c0,0.5,0.3,0.9,0.7,1c0.1,0,0.2,0,0.3,0
		c0.4,0,0.7-0.2,0.9-0.5l17.5-33.3C48.5,27.5,48.5,27.1,48.3,26.8z M31.3,56l1.2-18.7c0-0.3-0.1-0.5-0.3-0.7
		c-0.2-0.2-0.5-0.3-0.7-0.3h-4.8l1.1-25.8h11.3l-2.6,16.8c0,0.3,0,0.6,0.2,0.8c0.2,0.2,0.5,0.3,0.8,0.3h8.4L31.3,56z"/>
	<path class="st0" d="M44,21c1.7,0,2.5,0.8,3.6,1.8c1.2,1.1,2.5,2.4,5.1,2.4c2.6,0,4-1.3,5.1-2.4c1.1-1,1.9-1.8,3.7-1.8
		c0.6,0,1-0.4,1-1c0-0.6-0.4-1-1-1c-2.6,0-4,1.3-5.1,2.4c-1.1,1-1.9,1.8-3.7,1.8c-1.8,0-2.7-0.8-3.7-1.8c-1.1-1.1-2.4-2.3-4.9-2.4
		c-0.5,0-1,0.4-1,1C43,20.5,43.5,21,44,21z"/>
	<path class="st0" d="M8.4,21c1.8,0,2.7,0.8,3.7,1.8c1.2,1.1,2.5,2.4,5.1,2.4c2.4,0,3.7-1.1,4.9-2.2c0.4-0.4,0.4-1,0-1.4
		c-0.4-0.4-1-0.4-1.4,0c-1,0.9-1.8,1.6-3.5,1.6c-1.8,0-2.7-0.8-3.7-1.8C12.4,20.3,11,19,8.4,19c-0.6,0-1,0.4-1,1
		C7.4,20.5,7.9,21,8.4,21z"/>
	<path class="st0" d="M61.6,25.6c-2.6,0-4,1.3-5.1,2.4c-1.1,1-1.9,1.8-3.7,1.8c-0.6,0-1,0.4-1,1c0,0.6,0.4,1,1,1
		c2.6,0,4-1.3,5.1-2.4c1.1-1,1.9-1.8,3.7-1.8c0.6,0,1-0.4,1-1S62.1,25.6,61.6,25.6z"/>
	<path class="st0" d="M8.4,27.6c1.8,0,2.7,0.8,3.7,1.8c1.2,1.1,2.5,2.4,5.1,2.4c2.4,0,3.7-1.1,4.9-2.2c0.4-0.4,0.4-1,0-1.4
		c-0.4-0.4-1-0.4-1.4,0c-1,0.9-1.8,1.6-3.5,1.6c-1.8,0-2.7-0.8-3.7-1.8c-1.2-1.1-2.5-2.4-5.1-2.4c-0.6,0-1,0.4-1,1
		S7.9,27.6,8.4,27.6z"/>
	<path class="st0" d="M61.6,32.2c-2.6,0-4,1.3-5.1,2.4c-1.1,1-1.9,1.8-3.7,1.8c-1.6,0-2.5-0.7-3.4-1.5c-0.4-0.4-1-0.4-1.4,0
		c-0.4,0.4-0.4,1,0,1.4c1.1,1,2.4,2,4.7,2c2.6,0,4-1.3,5.1-2.4c1.1-1,1.9-1.8,3.7-1.8c0.6,0,1-0.4,1-1
		C62.6,32.6,62.1,32.2,61.6,32.2z"/>
	<path class="st0" d="M8.4,34.2c1.8,0,2.7,0.8,3.7,1.8c1.2,1.1,2.5,2.4,5.1,2.4c2.4,0,3.7-1.1,4.8-2.1c0.4-0.4,0.4-1,0-1.4
		c-0.4-0.4-1-0.4-1.4,0c-0.9,0.8-1.8,1.5-3.4,1.5c-1.8,0-2.7-0.8-3.7-1.8c-1.2-1.1-2.5-2.4-5.1-2.4c-0.6,0-1,0.4-1,1
		C7.4,33.7,7.9,34.2,8.4,34.2z"/>
	<path class="st0" d="M61.6,38.8c-2.6,0-4,1.3-5.1,2.4c-1.1,1-1.9,1.8-3.7,1.8c-1.8,0-2.7-0.8-3.7-1.8c-0.7-0.7-1.6-1.5-2.8-2
		c-0.5-0.2-1.1,0-1.3,0.6c-0.2,0.5,0,1.1,0.6,1.3c0.8,0.3,1.5,0.9,2.1,1.6c1.2,1.1,2.5,2.4,5.1,2.4c2.6,0,4-1.3,5.1-2.4
		c1.1-1,1.9-1.8,3.7-1.8c0.6,0,1-0.4,1-1C62.6,39.2,62.1,38.8,61.6,38.8z"/>
	<path class="st0" d="M8.4,40.8c1.8,0,2.7,0.8,3.7,1.8c1.2,1.1,2.5,2.4,5.1,2.4s3.9-1.3,5.1-2.4c0.8-0.7,1.4-1.4,2.4-1.7
		c0.5-0.2,0.8-0.7,0.7-1.2c-0.2-0.5-0.7-0.8-1.2-0.7c-1.4,0.4-2.4,1.3-3.2,2.1c-1.1,1-1.9,1.8-3.7,1.8s-2.7-0.8-3.7-1.8
		c-1.2-1.1-2.5-2.4-5.1-2.4c-0.6,0-1,0.4-1,1C7.4,40.3,7.9,40.8,8.4,40.8z"/>
	<path class="st0" d="M61.6,45.4c-2.6,0-4,1.3-5.1,2.4c-1.1,1-1.9,1.8-3.7,1.8c-1.8,0-2.7-0.8-3.7-1.8c-1.2-1.1-2.5-2.4-5.1-2.4
		c-1.1,0-2,0.2-2.9,0.7c-0.5,0.3-0.7,0.9-0.4,1.3c0.3,0.5,0.9,0.7,1.3,0.4c0.6-0.3,1.2-0.4,2-0.4c1.8,0,2.7,0.8,3.7,1.8
		c1.2,1.1,2.5,2.4,5.1,2.4c2.6,0,4-1.3,5.1-2.4c1.1-1,1.9-1.8,3.7-1.8c0.6,0,1-0.4,1-1C62.6,45.8,62.1,45.4,61.6,45.4z"/>
	<path class="st0" d="M25.9,45.4c-2.5,0.1-3.7,1.3-4.9,2.4c-1.1,1-1.9,1.8-3.7,1.8c-1.8,0-2.7-0.8-3.7-1.8c-1.2-1.1-2.5-2.4-5.1-2.4
		c-0.6,0-1,0.4-1,1c0,0.6,0.4,1,1,1c1.8,0,2.7,0.8,3.7,1.8c1.2,1.1,2.5,2.4,5.1,2.4c2.6,0,3.9-1.3,5.1-2.4c1-1,1.9-1.8,3.6-1.8
		c0.6,0,1-0.5,1-1C26.9,45.8,26.4,45.4,25.9,45.4z"/>
</g>
</svg>
