<?xml version="1.0" encoding="utf-8"?>
<!-- Generator: Adobe Illustrator 24.0.0, SVG Export Plug-In . SVG Version: 6.00 Build 0)  -->
<svg version="1.1" id="Capa_1" xmlns="http://www.w3.org/2000/svg" xmlns:xlink="http://www.w3.org/1999/xlink" x="0px" y="0px"
	 viewBox="0 0 70 70" style="enable-background:new 0 0 70 70;" xml:space="preserve">
<style type="text/css">
	.st0{fill:#BBDFD8;}
	.st1{fill:#003631;}
</style>
<g>
	<g>
		<path class="st0" d="M69.4,51.4l0-16.4V8.2c0-4.2-3.4-7.6-7.6-7.6l-10.4,0c0,0,0,0,0,0H18.6c0,0,0,0,0,0l-10.4,0
			C4,0.6,0.6,4,0.6,8.2v10.4c0,0,0,0,0,0v32.8c0,0,0,0,0,0v10.4c0,4.2,3.4,7.6,7.6,7.6l11.9,0l9.5,0l0,0l10.8,0l0,0h6.1l15.3,0
			c4.2,0,7.6-3.4,7.6-7.6L69.4,51.4C69.4,51.4,69.4,51.4,69.4,51.4z"/>
		<g>
			<path class="st1" d="M48.4,46.1l1.5-10h-9.6v-6.5c0-2.7,1.3-5.4,5.6-5.4h4.3v-8.5c0,0-3.9-0.7-7.7-0.7c-7.9,0-13,4.8-13,13.4v7.6
				h-8.7v10h8.7v23.4h10.8V46.1H48.4z"/>
		</g>
	</g>
</g>
</svg>
