<?xml version="1.0" encoding="utf-8"?>
<!-- Generator: Adobe Illustrator 24.0.0, SVG Export Plug-In . SVG Version: 6.00 Build 0)  -->
<svg version="1.1" id="Capa_1" xmlns="http://www.w3.org/2000/svg" xmlns:xlink="http://www.w3.org/1999/xlink" x="0px" y="0px"
	 viewBox="0 0 400 400" style="enable-background:new 0 0 400 400;" xml:space="preserve">
<style type="text/css">
	.st0{fill:#C6E5DB;}
</style>
<g>
	<path class="st0" d="M202.7,352.8c-0.9,0-1.8-0.2-2.7-0.5c-2.6-1.1-4.3-3.6-4.3-6.5V54.2c0-3.9,3.1-7,7-7s7,3.1,7,7v274.6
		l82.6-82.6c2.7-2.7,7.2-2.7,9.9,0c2.7,2.7,2.7,7.2,0,9.9l-94.5,94.5C206.3,352.1,204.5,352.8,202.7,352.8z"/>
	<path class="st0" d="M169.5,318.8c-1.8,0-3.6-0.7-4.9-2L97.9,250c-2.7-2.7-2.7-7.2,0-9.9c2.7-2.7,7.2-2.7,9.9,0l66.7,66.7
		c2.7,2.7,2.7,7.2,0,9.9C173.1,318.1,171.3,318.8,169.5,318.8z"/>
</g>
</svg>
