<?xml version="1.0" encoding="utf-8"?>
<!-- Generator: Adobe Illustrator 24.0.0, SVG Export Plug-In . SVG Version: 6.00 Build 0)  -->
<svg version="1.1" id="Capa_6" xmlns="http://www.w3.org/2000/svg" xmlns:xlink="http://www.w3.org/1999/xlink" x="0px" y="0px"
	 viewBox="0 0 70 70" style="enable-background:new 0 0 70 70;" xml:space="preserve">
<style type="text/css">
	.st0{fill:#00C08B;}
</style>
<g>
	<path class="st0" d="M58.4,59.6H11.6c-2.4,0-4.4-2-4.4-4.4c0-2.4,2-4.4,4.4-4.4h21.7h17.4h7.8c2.4,0,4.4,2,4.4,4.4
		C62.9,57.6,60.9,59.6,58.4,59.6 M35.2,42.1l2.3,4h8.9l2.3-3.9l0,6.5H35.2V42.1z M38.7,32.7h6.6l3.3,5.7l-3.3,5.7h-6.6l-3.3-5.7
		L38.7,32.7z M47.6,19.1L47.6,19.1l1.9-3l2.3,4h4.6l-6.9,16.1l-3.1-5.5h-6.4L47.6,19.1z M18.5,20.3l-1.7,0.9v-2.1h3V21L18.5,20.3z
		 M27.1,33.2l-1.7,1v-1.5H11.6v1.6l-1.8-1.1v-6.1l8.7-4.6l8.7,4.6V33.2z M23.4,44.6h-9.8v-9.8h3.9v2.5h2v-2.5h3.9V44.6z M16.4,10.4
		h3.8l1.9,3.3l-1.9,3.3h-3.8l-1.9-3.3L16.4,10.4z M50.6,10.4l-4.1,6.6h-24l1.9-3.3l-1.9-3.3H50.6z M57.4,10.4l2.2,3.8l-2.2,3.8H53
		l-2.2-3.8l2-3.5l0.2-0.4H57.4z M58.4,48.7h-7.8l0-10l0.2-0.3l0-0.1l8.1-18.8l3-5.3l-3.4-5.8h-4.3h-2.4H21.3h-0.6h-5.6l-3.1,5.3
		l2.6,4.6v3.9l-7,3.7v8.4l3.8,2.3v9.9h13.8v-10l3.7-2.3v-8.4L21.8,22v-3h23.4l-7.7,11.6h0l-4.4,7.7l0.2,0.3v10H11.6
		c-3.5,0-6.4,2.9-6.4,6.4c0,3.5,2.9,6.4,6.4,6.4h46.9c3.5,0,6.4-2.9,6.4-6.4C64.9,51.6,62,48.7,58.4,48.7"/>
	<path class="st0" d="M58.3,54.1H11.7c-0.6,0-1,0.4-1,1c0,0.6,0.4,1,1,1h46.6c0.6,0,1-0.4,1-1C59.3,54.6,58.8,54.1,58.3,54.1"/>
</g>
</svg>
