<?xml version="1.0" encoding="UTF-8" standalone="no"?>
<!DOCTYPE svg PUBLIC "-//W3C//DTD SVG 1.1//EN" "http://www.w3.org/Graphics/SVG/1.1/DTD/svg11.dtd">
<svg width="100%" height="100%" viewBox="0 0 70 70" version="1.1" xmlns="http://www.w3.org/2000/svg" xmlns:xlink="http://www.w3.org/1999/xlink" xml:space="preserve" xmlns:serif="http://www.serif.com/" style="fill-rule:evenodd;clip-rule:evenodd;stroke-linejoin:round;stroke-miterlimit:2;">
    <g transform="matrix(1,0,0,1,0.466002,0.160589)">
        <path d="M15.217,23.087L9.016,23.087C8.464,23.087 8.016,22.639 8.016,22.087C8.016,21.535 8.464,21.087 9.016,21.087L15.217,21.087L15.217,16.523C15.217,15.971 15.665,15.523 16.217,15.523L20.781,15.523L20.781,9.322C20.781,8.77 21.229,8.322 21.781,8.322C22.333,8.322 22.781,8.77 22.781,9.322L22.781,15.523L27.137,15.523L27.137,9.322C27.137,8.77 27.585,8.322 28.137,8.322C28.689,8.322 29.137,8.77 29.137,9.322L29.137,15.523L33.575,15.523L33.575,9.322C33.575,8.77 34.024,8.322 34.575,8.322C35.127,8.322 35.575,8.77 35.575,9.322L35.575,15.523L39.931,15.523L39.931,9.322C39.931,8.77 40.379,8.322 40.931,8.322C41.483,8.322 41.931,8.77 41.931,9.322L41.931,15.523L46.287,15.523L46.287,9.322C46.287,8.77 46.735,8.322 47.287,8.322C47.839,8.322 48.287,8.77 48.287,9.322L48.287,15.523L52.851,15.523C53.403,15.523 53.851,15.971 53.851,16.523L53.851,21.087L60.052,21.087C60.604,21.087 61.052,21.535 61.052,22.087C61.052,22.639 60.604,23.087 60.052,23.087L53.851,23.087L53.851,27.442L60.052,27.442C60.604,27.442 61.052,27.89 61.052,28.442C61.052,28.994 60.604,29.442 60.052,29.442L53.851,29.442L53.851,33.881L60.052,33.881C60.604,33.881 61.052,34.329 61.052,34.881C61.052,35.433 60.604,35.881 60.052,35.881L53.851,35.881L53.851,40.237L60.052,40.237C60.604,40.237 61.052,40.685 61.052,41.237C61.052,41.788 60.604,42.237 60.052,42.237L53.851,42.237L53.851,46.592L60.052,46.592C60.604,46.592 61.052,47.04 61.052,47.592C61.052,48.144 60.604,48.592 60.052,48.592L53.851,48.592L53.851,53.156C53.851,53.708 53.403,54.156 52.851,54.156L48.287,54.156L48.287,60.357C48.287,60.909 47.839,61.357 47.287,61.357C46.735,61.357 46.287,60.909 46.287,60.357L46.287,54.156L41.931,54.156L41.931,60.357C41.931,60.909 41.483,61.357 40.931,61.357C40.379,61.357 39.931,60.909 39.931,60.357L39.931,54.156L35.493,54.156L35.493,60.357C35.493,60.909 35.044,61.357 34.493,61.357C33.941,61.357 33.493,60.909 33.493,60.357L33.493,54.156L29.137,54.156L29.137,60.357C29.137,60.909 28.689,61.357 28.137,61.357C27.585,61.357 27.137,60.909 27.137,60.357L27.137,54.156L22.781,54.156L22.781,60.357C22.781,60.909 22.333,61.357 21.781,61.357C21.229,61.357 20.781,60.909 20.781,60.357L20.781,54.156L16.217,54.156C15.665,54.156 15.217,53.708 15.217,53.156L15.217,48.592L9.016,48.592C8.464,48.592 8.016,48.144 8.016,47.592C8.016,47.04 8.464,46.592 9.016,46.592L15.217,46.592L15.217,42.237L9.016,42.237C8.464,42.237 8.016,41.788 8.016,41.237C8.016,40.685 8.464,40.237 9.016,40.237L15.217,40.237L15.217,35.798L9.016,35.798C8.464,35.798 8.016,35.35 8.016,34.798C8.016,34.246 8.464,33.798 9.016,33.798L15.217,33.798L15.217,29.442L9.016,29.442C8.464,29.442 8.016,28.994 8.016,28.442C8.016,27.89 8.464,27.442 9.016,27.442L15.217,27.442L15.217,23.087ZM21.781,17.523L17.217,17.523L17.217,47.592L17.217,52.156L47.287,52.156L51.851,52.156L51.851,22.087L51.851,17.523L21.781,17.523ZM47.786,22.588L47.786,47.091C47.786,47.643 47.338,48.091 46.786,48.091L22.282,48.091C21.73,48.091 21.282,47.643 21.282,47.091L21.282,22.588C21.282,22.036 21.73,21.588 22.282,21.588L46.786,21.588C47.338,21.588 47.786,22.036 47.786,22.588ZM45.786,23.588L23.282,23.588L23.282,46.091L45.786,46.091L45.786,23.588Z" style="fill:rgb(0,192,139);"/>
    </g>
</svg>
